<svg width="20" height="20" viewBox="0 0 20 20" fill="none" xmlns="http://www.w3.org/2000/svg">
<path fill-rule="evenodd" clip-rule="evenodd" d="M16.9979 10.627C17.3293 10.6283 17.599 10.3607 17.6003 10.0293C17.6016 9.69794 17.334 9.42826 17.0026 9.42697L10.6024 9.402L10.6274 3.0018C10.6287 2.67043 10.3611 2.40076 10.0297 2.39947C9.69836 2.39817 9.42869 2.66575 9.42739 2.99712L9.40242 9.39731L3.00223 9.37234C2.67086 9.37105 2.40119 9.63863 2.39989 9.96999C2.3986 10.3014 2.66618 10.571 2.99755 10.5723L9.39774 10.5973L9.37277 16.9975C9.37147 17.3289 9.63905 17.5985 9.97042 17.5998C10.3018 17.6011 10.5715 17.3335 10.5728 17.0022L10.5977 10.602L16.9979 10.627Z" fill="white"/>
</svg>
